<mxfile host="app.diagrams.net" modified="2023-10-16T15:19:04.205Z" agent="Mozilla/5.0 (Windows NT 10.0; Win64; x64) AppleWebKit/537.36 (KHTML, like Gecko) Chrome/117.0.0.0 Safari/537.36" version="22.0.4" etag="V-HVipM6MwWfnTz5CbXF" type="github">
  <diagram name="第 1 页" id="kERXUOAeo_ihXjOY8bWa">
    <mxGraphModel>
      <root>
        <mxCell id="0" />
        <mxCell id="1" parent="0" />
      </root>
    </mxGraphModel>
  </diagram>
</mxfile>
